Coordinates
version=1
nRows=10
nColumns=28
inDegrees=yes

Units are S.I. units (second, meters, Newtons, ...)
Angles are in degrees.

endheader
time	pelvis_tilt	pelvis_list	pelvis_rotation	pelvis_tx	pelvis_ty	pelvis_tz	hip_flexion_r	hip_adduction_r	hip_rotation_r	knee_angle_r	ankle_angle_r	subtalar_angle_r	mtp_angle_r	hip_flexion_l	hip_adduction_l	hip_rotation_l	knee_angle_l	socket_flexion	socket_adduction	socket_rotation	socket_tx	socket_ty	socket_tz	foot_flex	lumbar_extension	lumbar_bending	lumbar_rotation
      0.26666667	     -2.16524091	      4.63526359	     -1.18384828	     -0.39480402	      0.98063060	      0.23482686	     16.99454625	     -7.68342879	      0.81112097	    -64.86118681	    -14.59295596	    -14.41153047	     14.38915189	     13.94813065	      9.75362872	      1.98629689	    -26.95728858	     -2.69671151	      0.00000000	      0.00000000	      0.00000000	      0.00000000	      0.00000000	      4.99991217	     -5.62435048	     -6.38908477	     -4.44405641
      0.27083333	     -1.60636850	      4.72951150	     -1.37890358	     -0.38852254	      0.98282523	      0.23522917	     17.10883102	     -7.80797666	      0.97143996	    -64.78617461	    -13.88687277	    -14.82997725	     13.33610662	     12.23960583	      9.81556221	      2.02981539	    -25.03691803	     -1.71386153	      0.00000000	      0.00000000	      0.00000000	      0.00000000	      0.00000000	      5.10864270	     -6.20206533	     -6.52275303	     -4.67650262
      0.27500000	     -1.57274662	      4.54380497	     -1.35266032	     -0.38291520	      0.98383665	      0.23505239	     17.83207100	     -7.65100502	      0.96882710	    -64.75337308	    -13.20377924	    -15.13914541	     13.32429333	     11.63946155	      9.64214483	      2.14316610	    -24.77037442	     -1.79607557	      0.00000000	      0.00000000	      0.00000000	      0.00000000	      0.00000000	      5.05061830	     -6.27390302	     -6.28512678	     -4.76624357
      0.27916667	     -1.54906395	      4.35543453	     -1.32535023	     -0.37716345	      0.98489850	      0.23510304	     18.50912615	     -7.43013930	      0.98566906	    -64.65166566	    -12.25325160	    -15.63350140	     13.26351104	     10.96479814	      9.43978439	      2.24852545	    -24.25873216	     -1.72237732	      0.00000000	      0.00000000	      0.00000000	      0.00000000	      0.00000000	      5.10053031	     -6.29114152	     -6.05470118	     -5.00206829
      0.28333333	     -1.01624545	      4.38826659	     -1.50179099	     -0.37074851	      0.98703946	      0.23541284	     18.54803673	     -7.47602527	      1.11977727	    -64.33986832	    -11.56188750	    -16.09359084	     12.23722441	      9.20136003	      9.45264133	      2.35895928	    -22.13796088	     -0.62756281	      0.00000000	      0.00000000	      0.00000000	      0.00000000	      0.00000000	      5.19784288	     -6.83348979	     -6.08231956	     -5.31649450
      0.28750000	     -1.02585291	      4.17777790	     -1.46540481	     -0.36515164	      0.98796992	      0.23536339	     19.24476843	     -7.24024873	      1.12443385	    -64.12614358	    -10.77874962	    -16.44408522	     12.22170644	      8.62186350	      9.23289785	      2.45557056	    -21.79671825	     -0.68124534	      0.00000000	      0.00000000	      0.00000000	      0.00000000	      0.00000000	      5.13543202	     -6.84776264	     -5.82519078	     -5.43491620
      0.29166667	     -1.02817787	      3.98224168	     -1.43478745	     -0.35948262	      0.98893433	      0.23535986	     19.89802574	     -7.02000335	      1.11391510	    -63.83552279	    -10.00525759	    -16.86293850	     12.12691074	      7.96737779	      9.02498208	      2.58157056	    -21.22674952	     -0.56273966	      0.00000000	      0.00000000	      0.00000000	      0.00000000	      0.00000000	      5.17044505	     -6.86812455	     -5.58026587	     -5.67816423
      0.29583333	     -0.47659048	      3.94546559	     -1.59939325	     -0.35301930	      0.99104633	      0.23571263	     19.81827369	     -6.95313660	      1.23623401	    -63.31519659	     -9.39997278	    -17.34565270	     11.10465626	      6.09599968	      8.95874913	      2.71945233	    -18.85257318	      0.68081324	      0.00000000	      0.00000000	      0.00000000	      0.00000000	      0.00000000	      5.21444445	     -7.42452275	     -5.53256396	     -6.03195912
      0.30000000	     -0.50912048	      3.69251467	     -1.56131351	     -0.34747172	      0.99189262	      0.23570560	     20.46204163	     -6.64595096	      1.22864011	    -62.89992066	     -8.60853738	    -17.66954656	     11.05573441	      5.52983802	      8.68552027	      2.83146064	    -18.44504153	      0.68701385	      0.00000000	      0.00000000	      0.00000000	      0.00000000	      0.00000000	      5.20814558	     -7.43095230	     -5.24300949	     -6.10936127
      0.30416667	     -0.01379596	      3.58215035	     -1.74545998	     -0.34110641	      0.99376281	      0.23607176	     20.42603898	     -6.46616230	      1.38492079	    -62.31489286	     -7.89951764	    -17.88409949	      9.92856600	      3.75746487	      8.54185190	      2.90199842	    -16.21252413	      1.79431895	      0.00000000	      0.00000000	      0.00000000	      0.00000000	      0.00000000	      5.20226573	     -7.93328473	     -5.11710384	     -6.18629141
